<svg width="873" height="123" viewBox="0 0 873 123" fill="none" xmlns="http://www.w3.org/2000/svg">
<path d="M34.772 50V18.788L20.894 43.034H18.518L4.586 18.788V50H0.806V11.66H4.694L19.652 37.904L34.718 11.66H38.552V50H34.772ZM48.1615 50V11.66H51.9415V26.564H61.6615C64.4335 26.564 66.7375 27.05 68.5735 28.022C70.4095 28.994 71.7775 30.362 72.6775 32.126C73.6135 33.89 74.0815 35.942 74.0815 38.282C74.0815 40.406 73.6315 42.368 72.7315 44.168C71.8315 45.968 70.4815 47.39 68.6815 48.434C66.8815 49.478 64.6315 50 61.9315 50H48.1615ZM51.9415 46.814H61.4455C63.5695 46.814 65.2795 46.418 66.5755 45.626C67.8715 44.798 68.8075 43.736 69.3835 42.44C69.9955 41.108 70.3015 39.722 70.3015 38.282C70.3015 36.77 70.0315 35.366 69.4915 34.07C68.9515 32.774 68.0335 31.73 66.7375 30.938C65.4415 30.146 63.6595 29.75 61.3915 29.75H51.9415V46.814ZM80.7775 50V11.714H84.5035V50H80.7775ZM105.319 30.56C105.319 28.22 105.715 25.934 106.507 23.702C107.335 21.434 108.523 19.382 110.071 17.546C111.619 15.674 113.527 14.198 115.795 13.118C118.063 12.002 120.637 11.444 123.517 11.444C126.937 11.444 129.853 12.236 132.265 13.82C134.713 15.368 136.513 17.366 137.665 19.814L134.695 21.65C133.867 19.958 132.823 18.626 131.563 17.654C130.303 16.646 128.953 15.926 127.513 15.494C126.109 15.062 124.705 14.846 123.301 14.846C120.997 14.846 118.963 15.314 117.199 16.25C115.435 17.15 113.941 18.374 112.717 19.922C111.529 21.434 110.629 23.144 110.017 25.052C109.405 26.924 109.099 28.832 109.099 30.776C109.099 32.9 109.459 34.934 110.179 36.878C110.899 38.822 111.907 40.55 113.203 42.062C114.499 43.538 116.011 44.726 117.739 45.626C119.503 46.49 121.411 46.922 123.463 46.922C124.903 46.922 126.379 46.67 127.891 46.166C129.403 45.662 130.807 44.888 132.103 43.844C133.435 42.8 134.497 41.45 135.289 39.794L138.421 41.414C137.629 43.322 136.405 44.942 134.749 46.274C133.093 47.606 131.239 48.614 129.187 49.298C127.171 49.982 125.191 50.324 123.247 50.324C120.619 50.324 118.207 49.766 116.011 48.65C113.815 47.498 111.907 45.986 110.287 44.114C108.703 42.206 107.479 40.082 106.615 37.742C105.751 35.366 105.319 32.972 105.319 30.56ZM159.898 50.27C157.198 50.27 154.75 49.73 152.554 48.65C150.358 47.57 148.468 46.112 146.884 44.276C145.3 42.404 144.076 40.316 143.212 38.012C142.348 35.672 141.916 33.278 141.916 30.83C141.916 28.274 142.366 25.844 143.266 23.54C144.166 21.2 145.426 19.13 147.046 17.33C148.702 15.494 150.628 14.054 152.824 13.01C155.02 11.93 157.396 11.39 159.952 11.39C162.652 11.39 165.1 11.948 167.296 13.064C169.492 14.18 171.364 15.674 172.912 17.546C174.496 19.418 175.72 21.506 176.584 23.81C177.448 26.114 177.88 28.472 177.88 30.884C177.88 33.44 177.43 35.888 176.53 38.228C175.63 40.532 174.37 42.602 172.75 44.438C171.13 46.238 169.222 47.66 167.026 48.704C164.83 49.748 162.454 50.27 159.898 50.27ZM145.696 30.83C145.696 32.918 146.038 34.934 146.722 36.878C147.406 38.786 148.378 40.496 149.638 42.008C150.898 43.484 152.392 44.672 154.12 45.572C155.884 46.436 157.81 46.868 159.898 46.868C162.094 46.868 164.056 46.418 165.784 45.518C167.548 44.582 169.042 43.358 170.266 41.846C171.526 40.298 172.48 38.57 173.128 36.662C173.776 34.754 174.1 32.81 174.1 30.83C174.1 28.742 173.758 26.744 173.074 24.836C172.39 22.928 171.4 21.218 170.104 19.706C168.844 18.194 167.35 17.006 165.622 16.142C163.894 15.278 161.986 14.846 159.898 14.846C157.738 14.846 155.776 15.296 154.012 16.196C152.284 17.096 150.79 18.32 149.53 19.868C148.306 21.38 147.352 23.09 146.668 24.998C146.02 26.906 145.696 28.85 145.696 30.83ZM194.619 50.486C191.991 50.486 189.633 49.928 187.545 48.812C185.457 47.66 183.819 46.076 182.631 44.06L185.547 42.278C186.447 43.862 187.671 45.086 189.219 45.95C190.767 46.814 192.549 47.246 194.565 47.246C197.301 47.246 199.461 46.544 201.045 45.14C202.665 43.7 203.475 41.792 203.475 39.416C203.475 37.904 203.133 36.572 202.449 35.42C201.801 34.232 200.865 33.314 199.641 32.666C198.417 32.018 196.941 31.694 195.213 31.694H191.541V28.67H195.267C196.599 28.67 197.769 28.364 198.777 27.752C199.785 27.104 200.577 26.258 201.153 25.214C201.729 24.17 202.017 23 202.017 21.704C202.017 20.3 201.693 19.076 201.045 18.032C200.433 16.988 199.551 16.16 198.399 15.548C197.283 14.936 195.969 14.63 194.457 14.63C192.621 14.63 191.001 15.044 189.597 15.872C188.193 16.7 187.077 17.852 186.249 19.328L183.495 17.492C184.611 15.512 186.087 13.964 187.923 12.848C189.795 11.732 192.027 11.174 194.619 11.174C196.815 11.174 198.723 11.606 200.343 12.47C201.999 13.298 203.295 14.468 204.231 15.98C205.203 17.456 205.689 19.202 205.689 21.218C205.689 23.162 205.203 24.926 204.231 26.51C203.295 28.058 201.927 29.228 200.127 30.02C202.395 30.632 204.141 31.82 205.365 33.584C206.625 35.348 207.255 37.4 207.255 39.74C207.255 41.972 206.715 43.898 205.635 45.518C204.555 47.102 203.061 48.326 201.153 49.19C199.281 50.054 197.103 50.486 194.619 50.486ZM210.888 57.344V46.652H212.508C213.516 46.652 214.398 46.238 215.154 45.41C215.946 44.582 216.612 43.25 217.152 41.414C217.728 39.542 218.178 37.04 218.502 33.908C218.862 30.776 219.114 26.888 219.258 22.244L219.528 11.66H242.478V46.652H247.068V57.344H243.72V50H214.236V57.344H210.888ZM217.908 46.652H238.698V15.008H222.984L222.768 22.676C222.66 27.536 222.408 31.604 222.012 34.88C221.652 38.12 221.13 40.694 220.446 42.602C219.762 44.474 218.916 45.824 217.908 46.652ZM265.969 11.66H269.155L285.085 50H281.089L276.121 38.012H258.895L253.981 50H249.931L265.969 11.66ZM275.257 35.042L267.535 16.088L259.705 35.042H275.257ZM316.339 46.652V50H290.581V11.66H315.853V15.008H294.361V28.832H313.099V32.018H294.361V46.652H316.339ZM298.357 5.72V0.643998H301.489V5.72H298.357ZM306.403 5.72V0.643998H309.535V5.72H306.403ZM357.454 50V18.788L343.576 43.034H341.2L327.268 18.788V50H323.488V11.66H327.376L342.334 37.904L357.4 11.66H361.234V50H357.454ZM384.823 50V11.66H388.549V44.816L412.309 11.66H415.819V50H412.093V17.438L388.603 50H384.823ZM423.096 30.56C423.096 28.22 423.492 25.934 424.284 23.702C425.112 21.434 426.3 19.382 427.848 17.546C429.396 15.674 431.304 14.198 433.572 13.118C435.84 12.002 438.414 11.444 441.294 11.444C444.714 11.444 447.63 12.236 450.042 13.82C452.49 15.368 454.29 17.366 455.442 19.814L452.472 21.65C451.644 19.958 450.6 18.626 449.34 17.654C448.08 16.646 446.73 15.926 445.29 15.494C443.886 15.062 442.482 14.846 441.078 14.846C438.774 14.846 436.74 15.314 434.976 16.25C433.212 17.15 431.718 18.374 430.494 19.922C429.306 21.434 428.406 23.144 427.794 25.052C427.182 26.924 426.876 28.832 426.876 30.776C426.876 32.9 427.236 34.934 427.956 36.878C428.676 38.822 429.684 40.55 430.98 42.062C432.276 43.538 433.788 44.726 435.516 45.626C437.28 46.49 439.188 46.922 441.24 46.922C442.68 46.922 444.156 46.67 445.668 46.166C447.18 45.662 448.584 44.888 449.88 43.844C451.212 42.8 452.274 41.45 453.066 39.794L456.198 41.414C455.406 43.322 454.182 44.942 452.526 46.274C450.87 47.606 449.016 48.614 446.964 49.298C444.948 49.982 442.968 50.324 441.024 50.324C438.396 50.324 435.984 49.766 433.788 48.65C431.592 47.498 429.684 45.986 428.064 44.114C426.48 42.206 425.256 40.082 424.392 37.742C423.528 35.366 423.096 32.972 423.096 30.56ZM462.654 50V11.66H466.434V28.724H472.212L485.388 11.66H489.762L475.344 30.236L490.68 50H486.036L472.32 32.18H466.434V50H462.654ZM501.09 50.108V46.922H503.52C504.348 46.922 504.96 46.688 505.356 46.22C505.788 45.752 506.256 45.05 506.76 44.114L508.434 40.604L492.072 11.66H496.23L510.162 36.77L521.772 11.66H525.714L509.676 45.95C508.956 47.426 508.218 48.488 507.462 49.136C506.706 49.784 505.644 50.108 504.276 50.108H501.09ZM527.616 30.56C527.616 28.22 528.012 25.934 528.804 23.702C529.632 21.434 530.82 19.382 532.368 17.546C533.916 15.674 535.824 14.198 538.092 13.118C540.36 12.002 542.934 11.444 545.814 11.444C549.234 11.444 552.15 12.236 554.562 13.82C557.01 15.368 558.81 17.366 559.962 19.814L556.992 21.65C556.164 19.958 555.12 18.626 553.86 17.654C552.6 16.646 551.25 15.926 549.81 15.494C548.406 15.062 547.002 14.846 545.598 14.846C543.294 14.846 541.26 15.314 539.496 16.25C537.732 17.15 536.238 18.374 535.014 19.922C533.826 21.434 532.926 23.144 532.314 25.052C531.702 26.924 531.396 28.832 531.396 30.776C531.396 32.9 531.756 34.934 532.476 36.878C533.196 38.822 534.204 40.55 535.5 42.062C536.796 43.538 538.308 44.726 540.036 45.626C541.8 46.49 543.708 46.922 545.76 46.922C547.2 46.922 548.676 46.67 550.188 46.166C551.7 45.662 553.104 44.888 554.4 43.844C555.732 42.8 556.794 41.45 557.586 39.794L560.718 41.414C559.926 43.322 558.702 44.942 557.046 46.274C555.39 47.606 553.536 48.614 551.484 49.298C549.468 49.982 547.488 50.324 545.544 50.324C542.916 50.324 540.504 49.766 538.308 48.65C536.112 47.498 534.204 45.986 532.584 44.114C531 42.206 529.776 40.082 528.912 37.742C528.048 35.366 527.616 32.972 527.616 30.56ZM564.213 30.56C564.213 28.22 564.609 25.934 565.401 23.702C566.229 21.434 567.417 19.382 568.965 17.546C570.513 15.674 572.421 14.198 574.689 13.118C576.957 12.002 579.531 11.444 582.411 11.444C585.831 11.444 588.747 12.236 591.159 13.82C593.607 15.368 595.407 17.366 596.559 19.814L593.589 21.65C592.761 19.958 591.717 18.626 590.457 17.654C589.197 16.646 587.847 15.926 586.407 15.494C585.003 15.062 583.599 14.846 582.195 14.846C579.891 14.846 577.857 15.314 576.093 16.25C574.329 17.15 572.835 18.374 571.611 19.922C570.423 21.434 569.523 23.144 568.911 25.052C568.299 26.924 567.993 28.832 567.993 30.776C567.993 32.9 568.353 34.934 569.073 36.878C569.793 38.822 570.801 40.55 572.097 42.062C573.393 43.538 574.905 44.726 576.633 45.626C578.397 46.49 580.305 46.922 582.357 46.922C583.797 46.922 585.273 46.67 586.785 46.166C588.297 45.662 589.701 44.888 590.997 43.844C592.329 42.8 593.391 41.45 594.183 39.794L597.315 41.414C596.523 43.322 595.299 44.942 593.643 46.274C591.987 47.606 590.133 48.614 588.081 49.298C586.065 49.982 584.085 50.324 582.141 50.324C579.513 50.324 577.101 49.766 574.905 48.65C572.709 47.498 570.801 45.986 569.181 44.114C567.597 42.206 566.373 40.082 565.509 37.742C564.645 35.366 564.213 32.972 564.213 30.56ZM630.881 15.008H617.219V50H613.439V15.008H599.777V11.66H630.881V15.008ZM665.46 40.118C665.46 42.026 664.974 43.736 664.002 45.248C663.03 46.724 661.716 47.894 660.06 48.758C658.44 49.586 656.658 50 654.714 50H636.624V11.66H655.092C656.892 11.66 658.44 12.146 659.736 13.118C661.068 14.054 662.076 15.278 662.76 16.79C663.48 18.266 663.84 19.814 663.84 21.434C663.84 23.342 663.354 25.106 662.382 26.726C661.41 28.346 660.06 29.552 658.332 30.344C660.528 30.992 662.256 32.198 663.516 33.962C664.812 35.726 665.46 37.778 665.46 40.118ZM661.68 39.47C661.68 38.174 661.392 36.986 660.816 35.906C660.24 34.79 659.448 33.89 658.44 33.206C657.468 32.522 656.352 32.18 655.092 32.18H640.404V46.706H654.714C656.01 46.706 657.18 46.364 658.224 45.68C659.268 44.996 660.096 44.114 660.708 43.034C661.356 41.918 661.68 40.73 661.68 39.47ZM640.404 14.954V29.102H653.58C654.84 29.102 655.956 28.778 656.928 28.13C657.9 27.446 658.674 26.564 659.25 25.484C659.826 24.404 660.114 23.252 660.114 22.028C660.114 20.732 659.844 19.562 659.304 18.518C658.764 17.438 658.026 16.574 657.09 15.926C656.154 15.278 655.092 14.954 653.904 14.954H640.404ZM688.033 50.27C685.333 50.27 682.885 49.73 680.689 48.65C678.493 47.57 676.603 46.112 675.019 44.276C673.435 42.404 672.211 40.316 671.347 38.012C670.483 35.672 670.051 33.278 670.051 30.83C670.051 28.274 670.501 25.844 671.401 23.54C672.301 21.2 673.561 19.13 675.181 17.33C676.837 15.494 678.763 14.054 680.959 13.01C683.155 11.93 685.531 11.39 688.087 11.39C690.787 11.39 693.235 11.948 695.431 13.064C697.627 14.18 699.499 15.674 701.047 17.546C702.631 19.418 703.855 21.506 704.719 23.81C705.583 26.114 706.015 28.472 706.015 30.884C706.015 33.44 705.565 35.888 704.665 38.228C703.765 40.532 702.505 42.602 700.885 44.438C699.265 46.238 697.357 47.66 695.161 48.704C692.965 49.748 690.589 50.27 688.033 50.27ZM673.831 30.83C673.831 32.918 674.173 34.934 674.857 36.878C675.541 38.786 676.513 40.496 677.773 42.008C679.033 43.484 680.527 44.672 682.255 45.572C684.019 46.436 685.945 46.868 688.033 46.868C690.229 46.868 692.191 46.418 693.919 45.518C695.683 44.582 697.177 43.358 698.401 41.846C699.661 40.298 700.615 38.57 701.263 36.662C701.911 34.754 702.235 32.81 702.235 30.83C702.235 28.742 701.893 26.744 701.209 24.836C700.525 22.928 699.535 21.218 698.239 19.706C696.979 18.194 695.485 17.006 693.757 16.142C692.029 15.278 690.121 14.846 688.033 14.846C685.873 14.846 683.911 15.296 682.147 16.196C680.419 17.096 678.925 18.32 677.665 19.868C676.441 21.38 675.487 23.09 674.803 24.998C674.155 26.906 673.831 28.85 673.831 30.83ZM712.136 54.374L713.054 49.838H711.812V44.708H715.376V49.838L714.026 54.374H712.136ZM0.806 115V76.66H4.586V93.724H10.364L23.54 76.66H27.914L13.496 95.236L28.832 115H24.188L10.472 97.18H4.586V115H0.806ZM48.3652 115.27C45.6652 115.27 43.2172 114.73 41.0212 113.65C38.8252 112.57 36.9352 111.112 35.3512 109.276C33.7672 107.404 32.5432 105.316 31.6792 103.012C30.8152 100.672 30.3832 98.278 30.3832 95.83C30.3832 93.274 30.8332 90.844 31.7332 88.54C32.6332 86.2 33.8932 84.13 35.5132 82.33C37.1692 80.494 39.0952 79.054 41.2912 78.01C43.4872 76.93 45.8632 76.39 48.4192 76.39C51.1192 76.39 53.5672 76.948 55.7632 78.064C57.9592 79.18 59.8312 80.674 61.3792 82.546C62.9632 84.418 64.1872 86.506 65.0512 88.81C65.9152 91.114 66.3472 93.472 66.3472 95.884C66.3472 98.44 65.8972 100.888 64.9972 103.228C64.0972 105.532 62.8372 107.602 61.2172 109.438C59.5972 111.238 57.6892 112.66 55.4932 113.704C53.2972 114.748 50.9212 115.27 48.3652 115.27ZM34.1632 95.83C34.1632 97.918 34.5052 99.934 35.1892 101.878C35.8732 103.786 36.8452 105.496 38.1052 107.008C39.3652 108.484 40.8592 109.672 42.5872 110.572C44.3512 111.436 46.2772 111.868 48.3652 111.868C50.5612 111.868 52.5232 111.418 54.2512 110.518C56.0152 109.582 57.5092 108.358 58.7332 106.846C59.9932 105.298 60.9472 103.57 61.5952 101.662C62.2432 99.754 62.5672 97.81 62.5672 95.83C62.5672 93.742 62.2252 91.744 61.5412 89.836C60.8572 87.928 59.8672 86.218 58.5712 84.706C57.3112 83.194 55.8172 82.006 54.0892 81.142C52.3612 80.278 50.4532 79.846 48.3652 79.846C46.2052 79.846 44.2432 80.296 42.4792 81.196C40.7512 82.096 39.2572 83.32 37.9972 84.868C36.7732 86.38 35.8192 88.09 35.1352 89.998C34.4872 91.906 34.1632 93.85 34.1632 95.83ZM99.3189 80.008H85.6569V115H81.8769V80.008H68.2149V76.66H99.3189V80.008ZM119.188 115.27C116.488 115.27 114.04 114.73 111.844 113.65C109.648 112.57 107.758 111.112 106.174 109.276C104.59 107.404 103.366 105.316 102.501 103.012C101.638 100.672 101.206 98.278 101.206 95.83C101.206 93.274 101.656 90.844 102.556 88.54C103.456 86.2 104.716 84.13 106.336 82.33C107.992 80.494 109.918 79.054 112.114 78.01C114.31 76.93 116.686 76.39 119.242 76.39C121.942 76.39 124.39 76.948 126.586 78.064C128.782 79.18 130.654 80.674 132.202 82.546C133.786 84.418 135.01 86.506 135.874 88.81C136.738 91.114 137.17 93.472 137.17 95.884C137.17 98.44 136.72 100.888 135.82 103.228C134.92 105.532 133.66 107.602 132.04 109.438C130.42 111.238 128.512 112.66 126.316 113.704C124.12 114.748 121.744 115.27 119.188 115.27ZM104.986 95.83C104.986 97.918 105.328 99.934 106.012 101.878C106.696 103.786 107.668 105.496 108.928 107.008C110.188 108.484 111.682 109.672 113.41 110.572C115.174 111.436 117.1 111.868 119.188 111.868C121.384 111.868 123.346 111.418 125.074 110.518C126.838 109.582 128.332 108.358 129.556 106.846C130.816 105.298 131.77 103.57 132.418 101.662C133.066 99.754 133.39 97.81 133.39 95.83C133.39 93.742 133.048 91.744 132.364 89.836C131.68 87.928 130.69 86.218 129.394 84.706C128.134 83.194 126.64 82.006 124.912 81.142C123.184 80.278 121.276 79.846 119.188 79.846C117.028 79.846 115.066 80.296 113.302 81.196C111.574 82.096 110.08 83.32 108.82 84.868C107.596 86.38 106.642 88.09 105.958 89.998C105.31 91.906 104.986 93.85 104.986 95.83ZM144.296 115V76.66H160.172C161.828 76.66 163.34 77.002 164.708 77.686C166.112 78.37 167.318 79.306 168.326 80.494C169.334 81.646 170.126 82.942 170.702 84.382C171.278 85.786 171.566 87.226 171.566 88.702C171.566 90.79 171.098 92.77 170.162 94.642C169.262 96.478 167.984 97.972 166.328 99.124C164.672 100.276 162.728 100.852 160.496 100.852H148.076V115H144.296ZM148.076 97.504H160.334C161.846 97.504 163.16 97.09 164.276 96.262C165.392 95.434 166.256 94.354 166.868 93.022C167.48 91.69 167.786 90.25 167.786 88.702C167.786 87.118 167.426 85.66 166.706 84.328C165.986 82.996 165.032 81.952 163.844 81.196C162.692 80.404 161.414 80.008 160.01 80.008H148.076V97.504ZM193.332 115.27C190.632 115.27 188.184 114.73 185.988 113.65C183.792 112.57 181.902 111.112 180.318 109.276C178.734 107.404 177.51 105.316 176.646 103.012C175.782 100.672 175.35 98.278 175.35 95.83C175.35 93.274 175.8 90.844 176.7 88.54C177.6 86.2 178.86 84.13 180.48 82.33C182.136 80.494 184.062 79.054 186.258 78.01C188.454 76.93 190.83 76.39 193.386 76.39C196.086 76.39 198.534 76.948 200.73 78.064C202.926 79.18 204.798 80.674 206.346 82.546C207.93 84.418 209.154 86.506 210.018 88.81C210.882 91.114 211.314 93.472 211.314 95.884C211.314 98.44 210.864 100.888 209.964 103.228C209.064 105.532 207.804 107.602 206.184 109.438C204.564 111.238 202.656 112.66 200.46 113.704C198.264 114.748 195.888 115.27 193.332 115.27ZM179.13 95.83C179.13 97.918 179.472 99.934 180.156 101.878C180.84 103.786 181.812 105.496 183.072 107.008C184.332 108.484 185.826 109.672 187.554 110.572C189.318 111.436 191.244 111.868 193.332 111.868C195.528 111.868 197.49 111.418 199.218 110.518C200.982 109.582 202.476 108.358 203.7 106.846C204.96 105.298 205.914 103.57 206.562 101.662C207.21 99.754 207.534 97.81 207.534 95.83C207.534 93.742 207.192 91.744 206.508 89.836C205.824 87.928 204.834 86.218 203.538 84.706C202.278 83.194 200.784 82.006 199.056 81.142C197.328 80.278 195.42 79.846 193.332 79.846C191.172 79.846 189.21 80.296 187.446 81.196C185.718 82.096 184.224 83.32 182.964 84.868C181.74 86.38 180.786 88.09 180.102 89.998C179.454 91.906 179.13 93.85 179.13 95.83ZM244.199 111.652V115H218.441V76.66H243.713V80.008H222.221V93.832H240.959V97.018H222.221V111.652H244.199ZM295.351 76.66V115H291.625V97.072H268.891V115H265.111V76.66H268.891V93.724H291.625V76.66H295.351ZM330.736 111.652V115H304.978V76.66H330.25V80.008H308.758V93.832H327.496V97.018H308.758V111.652H330.736ZM349.11 95.56C349.11 93.22 349.506 90.934 350.298 88.702C351.126 86.434 352.314 84.382 353.862 82.546C355.41 80.674 357.318 79.198 359.586 78.118C361.854 77.002 364.428 76.444 367.308 76.444C370.728 76.444 373.644 77.236 376.056 78.82C378.504 80.368 380.304 82.366 381.456 84.814L378.486 86.65C377.658 84.958 376.614 83.626 375.354 82.654C374.094 81.646 372.744 80.926 371.304 80.494C369.9 80.062 368.496 79.846 367.092 79.846C364.788 79.846 362.754 80.314 360.99 81.25C359.226 82.15 357.732 83.374 356.508 84.922C355.32 86.434 354.42 88.144 353.808 90.052C353.196 91.924 352.89 93.832 352.89 95.776C352.89 97.9 353.25 99.934 353.97 101.878C354.69 103.822 355.698 105.55 356.994 107.062C358.29 108.538 359.802 109.726 361.53 110.626C363.294 111.49 365.202 111.922 367.254 111.922C368.694 111.922 370.17 111.67 371.682 111.166C373.194 110.662 374.598 109.888 375.894 108.844C377.226 107.8 378.288 106.45 379.08 104.794L382.212 106.414C381.42 108.322 380.196 109.942 378.54 111.274C376.884 112.606 375.03 113.614 372.978 114.298C370.962 114.982 368.982 115.324 367.038 115.324C364.41 115.324 361.998 114.766 359.802 113.65C357.606 112.498 355.698 110.986 354.078 109.114C352.494 107.206 351.27 105.082 350.406 102.742C349.542 100.366 349.11 97.972 349.11 95.56ZM415.778 80.008H402.116V115H398.336V80.008H384.674V76.66H415.778V80.008ZM421.521 115V76.66H425.301V91.564H435.021C437.793 91.564 440.097 92.05 441.933 93.022C443.769 93.994 445.137 95.362 446.037 97.126C446.973 98.89 447.441 100.942 447.441 103.282C447.441 105.406 446.991 107.368 446.091 109.168C445.191 110.968 443.841 112.39 442.041 113.434C440.241 114.478 437.991 115 435.291 115H421.521ZM425.301 111.814H434.805C436.929 111.814 438.639 111.418 439.935 110.626C441.231 109.798 442.167 108.736 442.743 107.44C443.355 106.108 443.661 104.722 443.661 103.282C443.661 101.77 443.391 100.366 442.851 99.07C442.311 97.774 441.393 96.73 440.097 95.938C438.801 95.146 437.019 94.75 434.751 94.75H425.301V111.814ZM454.137 115V76.714H457.863V115H454.137ZM464.698 122.344V111.652H466.318C467.326 111.652 468.208 111.238 468.964 110.41C469.756 109.582 470.422 108.25 470.962 106.414C471.538 104.542 471.988 102.04 472.312 98.908C472.672 95.776 472.924 91.888 473.068 87.244L473.338 76.66H496.288V111.652H500.878V122.344H497.53V115H468.046V122.344H464.698ZM471.718 111.652H492.508V80.008H476.794L476.578 87.676C476.47 92.536 476.218 96.604 475.822 99.88C475.462 103.12 474.94 105.694 474.256 107.602C473.572 109.474 472.726 110.824 471.718 111.652ZM538.14 76.66V115H534.414V97.072H511.68V115H507.9V76.66H511.68V93.724H534.414V76.66H538.14ZM563.211 115.27C560.511 115.27 558.063 114.73 555.867 113.65C553.671 112.57 551.781 111.112 550.197 109.276C548.613 107.404 547.389 105.316 546.525 103.012C545.661 100.672 545.229 98.278 545.229 95.83C545.229 93.274 545.679 90.844 546.579 88.54C547.479 86.2 548.739 84.13 550.359 82.33C552.015 80.494 553.941 79.054 556.137 78.01C558.333 76.93 560.709 76.39 563.265 76.39C565.965 76.39 568.413 76.948 570.609 78.064C572.805 79.18 574.677 80.674 576.225 82.546C577.809 84.418 579.033 86.506 579.897 88.81C580.761 91.114 581.193 93.472 581.193 95.884C581.193 98.44 580.743 100.888 579.843 103.228C578.943 105.532 577.683 107.602 576.063 109.438C574.443 111.238 572.535 112.66 570.339 113.704C568.143 114.748 565.767 115.27 563.211 115.27ZM549.009 95.83C549.009 97.918 549.351 99.934 550.035 101.878C550.719 103.786 551.691 105.496 552.951 107.008C554.211 108.484 555.705 109.672 557.433 110.572C559.197 111.436 561.123 111.868 563.211 111.868C565.407 111.868 567.369 111.418 569.097 110.518C570.861 109.582 572.355 108.358 573.579 106.846C574.839 105.298 575.793 103.57 576.441 101.662C577.089 99.754 577.413 97.81 577.413 95.83C577.413 93.742 577.071 91.744 576.387 89.836C575.703 87.928 574.713 86.218 573.417 84.706C572.157 83.194 570.663 82.006 568.935 81.142C567.207 80.278 565.299 79.846 563.211 79.846C561.051 79.846 559.089 80.296 557.325 81.196C555.597 82.096 554.103 83.32 552.843 84.868C551.619 86.38 550.665 88.09 549.981 89.998C549.333 91.906 549.009 93.85 549.009 95.83ZM602.083 115V76.66H631.027V115H627.247V80.008H605.863V115H602.083ZM656.076 115.27C653.376 115.27 650.928 114.73 648.732 113.65C646.536 112.57 644.646 111.112 643.062 109.276C641.478 107.404 640.254 105.316 639.39 103.012C638.526 100.672 638.094 98.278 638.094 95.83C638.094 93.274 638.544 90.844 639.444 88.54C640.344 86.2 641.604 84.13 643.224 82.33C644.88 80.494 646.806 79.054 649.002 78.01C651.198 76.93 653.574 76.39 656.13 76.39C658.83 76.39 661.278 76.948 663.474 78.064C665.67 79.18 667.542 80.674 669.09 82.546C670.674 84.418 671.898 86.506 672.762 88.81C673.626 91.114 674.058 93.472 674.058 95.884C674.058 98.44 673.608 100.888 672.708 103.228C671.808 105.532 670.548 107.602 668.928 109.438C667.308 111.238 665.4 112.66 663.204 113.704C661.008 114.748 658.632 115.27 656.076 115.27ZM641.874 95.83C641.874 97.918 642.216 99.934 642.9 101.878C643.584 103.786 644.556 105.496 645.816 107.008C647.076 108.484 648.57 109.672 650.298 110.572C652.062 111.436 653.988 111.868 656.076 111.868C658.272 111.868 660.234 111.418 661.962 110.518C663.726 109.582 665.22 108.358 666.444 106.846C667.704 105.298 668.658 103.57 669.306 101.662C669.954 99.754 670.278 97.81 670.278 95.83C670.278 93.742 669.936 91.744 669.252 89.836C668.568 87.928 667.578 86.218 666.282 84.706C665.022 83.194 663.528 82.006 661.8 81.142C660.072 80.278 658.164 79.846 656.076 79.846C653.916 79.846 651.954 80.296 650.19 81.196C648.462 82.096 646.968 83.32 645.708 84.868C644.484 86.38 643.53 88.09 642.846 89.998C642.198 91.906 641.874 93.85 641.874 95.83ZM681.185 115V76.66H684.965V93.724H690.743L703.919 76.66H708.293L693.875 95.236L709.211 115H704.567L690.851 97.18H684.965V115H681.185ZM727.29 76.66H730.476L746.406 115H742.41L737.442 103.012H720.216L715.302 115H711.252L727.29 76.66ZM736.578 100.042L728.856 81.088L721.026 100.042H736.578ZM761.303 115.486C758.675 115.486 756.317 114.928 754.229 113.812C752.141 112.66 750.503 111.076 749.315 109.06L752.231 107.278C753.131 108.862 754.355 110.086 755.903 110.95C757.451 111.814 759.233 112.246 761.249 112.246C763.985 112.246 766.145 111.544 767.729 110.14C769.349 108.7 770.159 106.792 770.159 104.416C770.159 102.904 769.817 101.572 769.133 100.42C768.485 99.232 767.549 98.314 766.325 97.666C765.101 97.018 763.625 96.694 761.897 96.694H758.225V93.67H761.951C763.283 93.67 764.453 93.364 765.461 92.752C766.469 92.104 767.261 91.258 767.837 90.214C768.413 89.17 768.701 88 768.701 86.704C768.701 85.3 768.377 84.076 767.729 83.032C767.117 81.988 766.235 81.16 765.083 80.548C763.967 79.936 762.653 79.63 761.141 79.63C759.305 79.63 757.685 80.044 756.281 80.872C754.877 81.7 753.761 82.852 752.933 84.328L750.179 82.492C751.295 80.512 752.771 78.964 754.607 77.848C756.479 76.732 758.711 76.174 761.303 76.174C763.499 76.174 765.407 76.606 767.027 77.47C768.683 78.298 769.979 79.468 770.915 80.98C771.887 82.456 772.373 84.202 772.373 86.218C772.373 88.162 771.887 89.926 770.915 91.51C769.979 93.058 768.611 94.228 766.811 95.02C769.079 95.632 770.825 96.82 772.049 98.584C773.309 100.348 773.939 102.4 773.939 104.74C773.939 106.972 773.399 108.898 772.319 110.518C771.239 112.102 769.745 113.326 767.837 114.19C765.965 115.054 763.787 115.486 761.303 115.486ZM792.153 76.66H795.339L811.269 115H807.273L802.305 103.012H785.079L780.165 115H776.115L792.153 76.66ZM801.441 100.042L793.719 81.088L785.889 100.042H801.441ZM840.342 80.008H826.68V115H822.9V80.008H809.238V76.66H840.342V80.008ZM846.085 115V76.66H849.865V91.564H859.585C862.357 91.564 864.661 92.05 866.497 93.022C868.333 93.994 869.701 95.362 870.601 97.126C871.537 98.89 872.005 100.942 872.005 103.282C872.005 105.406 871.555 107.368 870.655 109.168C869.755 110.968 868.405 112.39 866.605 113.434C864.805 114.478 862.555 115 859.855 115H846.085ZM849.865 111.814H859.369C861.493 111.814 863.203 111.418 864.499 110.626C865.795 109.798 866.731 108.736 867.307 107.44C867.919 106.108 868.225 104.722 868.225 103.282C868.225 101.77 867.955 100.366 867.415 99.07C866.875 97.774 865.957 96.73 864.661 95.938C863.365 95.146 861.583 94.75 859.315 94.75H849.865V111.814Z" fill="#F6F3E3"/>
</svg>
